<svg width="220" height="257" viewBox="0 0 220 257" fill="none" xmlns="http://www.w3.org/2000/svg">
<path d="M201.867 6.52232C183.867 17.7223 176.667 22.9223 166.267 32.6557C155.867 42.5223 150.133 50.6557 147.067 60.2557C145.067 66.6557 145.067 67.589 147.2 74.2557C149.467 81.3223 159.733 100.789 161.2 100.789C161.6 100.789 166 92.789 170.933 83.0557C179.733 65.7223 193.2 41.989 193.333 43.7223C193.333 46.2557 183.067 70.789 176 84.789C171.6 93.589 168 101.322 168 101.989C168 103.589 195.6 97.7223 201.333 95.0557C215.067 88.389 221.6 61.8557 218.933 24.1223C216.8 -4.81101 218 -3.61101 201.867 6.52232Z" fill="#BE9C52"/>
<path d="M136 90.1223C134.267 91.1889 134.267 91.8556 135.733 94.2556C136.8 95.8556 138.667 99.0556 140 101.322C146.533 113.056 152.133 122.122 153.067 122.656C154.4 123.456 193.333 114.122 193.333 113.056C193.333 112.522 192 110.389 190.267 108.389L187.333 104.522L178.267 106.656C162 110.522 159.867 109.589 151.2 94.6556C148.133 89.4556 147.2 88.7889 142.933 88.7889C140.133 88.7889 137.067 89.4556 136 90.1223Z" fill="#BE9C52"/>
<path d="M13.5999 101.056C4.2666 107.856 -0.800063 112.256 0.266604 112.789C1.19994 113.322 10.7999 116.256 21.5999 119.456L41.1999 125.189L52.9333 114.656C68.6666 100.522 68.1333 101.056 66.9333 100.389C66.3999 99.989 62.3999 98.789 57.9999 97.589C53.5999 96.5224 46.3999 94.389 42.1333 92.789C37.7333 91.3224 32.9333 90.1224 31.4666 90.1224C29.8666 90.1224 21.8666 95.0557 13.5999 101.056Z" fill="#213828"/>
<path d="M122.133 108.389L115.867 121.456L124.933 137.056C129.867 145.722 134.4 152.789 134.933 152.789C136.8 152.789 148.267 128.522 147.6 125.989C146.8 122.789 130.4 95.4555 129.333 95.4555C128.933 95.4555 125.733 101.322 122.133 108.389Z" fill="#213828"/>
<path d="M59.0667 115.855C53.0667 121.189 47.8667 126.655 47.3334 128.122C46.5334 130.789 56.4001 155.055 58.0001 154.522C58.5334 154.389 64.2667 149.189 70.8001 143.055L82.8001 131.722L79.2001 123.989C77.3334 119.589 74.8001 113.855 73.6001 111.055C72.5334 108.389 71.2001 106.122 70.8001 106.255C70.4001 106.255 65.0667 110.655 59.0667 115.855Z" fill="#213828"/>
<path d="M0 119.456C0 120.256 3.06667 127.056 6.93333 134.789L13.8667 148.656L29.3333 152.122C51.0667 157.056 50.6667 156.922 50.6667 155.456C50.6667 153.589 42.5333 133.989 40.9333 131.856C39.8667 130.389 29.0667 126.656 7.06667 120.256C3.2 119.189 0 118.789 0 119.456Z" fill="#213828"/>
<path d="M171.467 124.255C161.867 126.789 154 129.055 153.867 129.189C152.267 131.055 141.333 154.522 141.867 155.055C142.533 155.722 178.667 149.322 179.333 148.522C179.467 148.255 183.067 141.722 187.2 133.722C196.267 116.789 197.333 117.455 171.467 124.255Z" fill="#213828"/>
<path d="M113.067 140.389C109.467 140.656 106.667 141.322 106.667 141.722C106.667 143.856 127.2 176.789 128.533 176.789C131.733 176.789 166.667 166.789 166.667 165.989C166.667 165.322 165.333 163.322 163.6 161.322L160.533 157.722L149.6 159.322C143.467 160.256 137.333 160.522 136 160.122C134.533 159.589 130.267 154.789 126.667 149.322C122.933 143.856 119.733 139.589 119.6 139.722C119.467 139.856 116.533 140.122 113.067 140.389Z" fill="#213828"/>
<path d="M68 152.789C62 158.522 56.9333 162.122 55.0666 162.122C53.4666 162.122 47.7333 161.189 42.4 160.122L32.6666 157.989L29.7333 161.722C28 163.722 26.8 165.989 27.0666 166.656C27.3333 167.322 31.8666 169.589 37.3333 171.722C45.7333 174.922 46.4 175.456 42 174.922C39.0666 174.522 34.6666 173.722 32.1333 173.322L27.6 172.389L48.6666 213.589C60.1333 236.256 70.4667 256.122 71 256.789L106.5 256.789L123.5 256.789L133.067 237.456C142 220.389 142.8 218.122 141.333 215.322C140.4 213.589 139.467 211.856 139.2 211.722C139.067 211.456 132 212.522 123.467 214.256C111.067 216.656 107.733 216.922 106.133 215.589C104.133 213.856 96.5333 200.522 88 183.722L83.7333 175.322L88.5333 165.322L93.3333 155.322L90.6666 150.256C85.7333 140.522 80.6666 141.056 68 152.789Z" fill="#213828"/>
<path d="M96.9334 160.389C93.4667 167.589 90.6667 174.256 90.6667 175.189C90.6667 176.922 100.8 197.589 105.2 204.789L107.733 208.922L115.2 194.922C119.467 187.189 122.533 180.389 122.267 179.722C120.533 176.522 103.6 147.456 103.333 147.456C103.2 147.456 100.267 153.322 96.9334 160.389Z" fill="#213828"/>
<path d="M145.467 177.455C136.4 179.989 128.4 182.522 127.867 183.055C126.267 184.789 113.067 210.255 113.467 210.789C114 211.189 136 206.389 146.4 203.589C151.733 202.122 152.4 201.322 157.6 191.055C166.667 173.455 166.933 172.789 164.267 172.922C163.067 172.922 154.533 175.055 145.467 177.455Z" fill="#213828"/>
</svg>
